<?xml version="1.0" encoding="UTF-8"?>
<svg xmlns="http://www.w3.org/2000/svg" viewBox="68.50 42.00 1116.00 1116.00" role="img" aria-label="Three-leaf clover" shape-rendering="geometricPrecision">
  <title>Three-leaf clover</title>
  <g fill="#6ccb20" stroke="none">
    <path d="M 240 547 L 208 559 L 187 570 L 175 578 L 165 586 L 145 606 L 132 624 L 118 653 L 113 670 L 111 687 L 110 688 L 110 700 L 109 701 L 110 719 L 116 749 L 121 762 L 132 783 L 141 796 L 161 817 L 177 829 L 197 840 L 213 846 L 228 849 L 232 851 L 232 854 L 224 876 L 220 897 L 219 927 L 220 928 L 220 938 L 221 939 L 222 950 L 228 971 L 238 993 L 249 1010 L 265 1028 L 281 1041 L 299 1052 L 301 1052 L 315 1059 L 336 1065 L 351 1066 L 352 1067 L 363 1067 L 364 1068 L 375 1068 L 376 1067 L 387 1067 L 388 1066 L 400 1065 L 426 1058 L 453 1046 L 475 1032 L 488 1022 L 512 999 L 528 980 L 547 953 L 557 937 L 577 898 L 592 861 L 602 830 L 609 804 L 609 800 L 611 796 L 611 792 L 616 773 L 616 768 L 618 763 L 622 732 L 623 731 L 625 702 L 626 701 L 626 688 L 627 687 L 626 651 L 610 639 L 607 638 L 581 620 L 545 599 L 511 582 L 509 582 L 479 568 L 428 551 L 412 548 L 399 544 L 394 544 L 376 540 L 353 538 L 352 537 L 337 537 L 336 536 L 292 537 L 291 538 L 284 538 L 283 539 L 265 541 Z"/>
    <path d="M 467 137 L 455 141 L 442 147 L 440 149 L 436 150 L 417 163 L 407 172 L 397 183 L 387 197 L 374 222 L 365 250 L 362 266 L 361 282 L 360 283 L 361 328 L 362 329 L 364 347 L 371 374 L 383 405 L 405 446 L 425 475 L 448 503 L 469 526 L 505 560 L 542 590 L 599 629 L 627 646 L 630 646 L 651 633 L 702 598 L 756 554 L 789 522 L 809 500 L 830 474 L 853 440 L 869 410 L 879 386 L 887 360 L 892 335 L 893 317 L 894 316 L 894 285 L 893 284 L 891 260 L 885 236 L 876 213 L 868 199 L 856 182 L 839 165 L 816 149 L 796 140 L 779 135 L 769 133 L 759 133 L 758 132 L 741 132 L 740 133 L 731 133 L 730 134 L 719 135 L 694 143 L 679 150 L 654 167 L 634 187 L 627 196 L 619 186 L 596 164 L 575 150 L 558 142 L 539 136 L 524 133 L 514 133 L 513 132 L 486 133 Z"/>
    <path d="M 1010 545 L 989 540 L 970 538 L 969 537 L 925 535 L 924 536 L 904 536 L 903 537 L 894 537 L 893 538 L 873 540 L 824 551 L 779 566 L 726 590 L 679 617 L 638 645 L 631 651 L 631 659 L 630 660 L 631 714 L 632 715 L 634 744 L 635 745 L 635 752 L 636 753 L 639 777 L 643 797 L 655 842 L 667 876 L 679 904 L 681 906 L 681 908 L 698 940 L 710 959 L 728 983 L 743 1000 L 763 1019 L 783 1034 L 799 1044 L 830 1058 L 833 1058 L 851 1064 L 868 1066 L 869 1067 L 887 1067 L 888 1068 L 889 1067 L 911 1066 L 932 1061 L 953 1053 L 970 1043 L 982 1034 L 999 1017 L 1011 1001 L 1022 980 L 1022 978 L 1024 976 L 1031 953 L 1033 943 L 1033 936 L 1034 935 L 1034 922 L 1035 921 L 1034 919 L 1035 917 L 1034 898 L 1030 878 L 1021 851 L 1052 842 L 1075 830 L 1094 816 L 1106 804 L 1118 789 L 1126 776 L 1136 754 L 1141 737 L 1143 719 L 1144 718 L 1143 682 L 1139 663 L 1130 639 L 1120 621 L 1107 604 L 1092 589 L 1076 576 L 1051 561 L 1028 551 L 1013 547 Z"/>
  </g>
</svg>
